<svg xml:space="preserve" style="max-height: 500px" viewBox="0 0 2000 1544" y="0px" x="0px" xmlns:xlink="http://www.w3.org/1999/xlink" xmlns="http://www.w3.org/2000/svg" id="Livello_1" version="1.1" width="2000" height="1544">
<style type="text/css">
	.st0{fill:#E73C1D;}
</style>
<g>
	<g>
		<path d="M772.7,864.6c-59.7,0-119.5,0-179.2,0c-4.2,0-8.4,0-12.6-0.2c-24.5-0.6-42-23.9-31.1-44.2&#10;&#9;&#9;&#9;c1.1-2.1,2.5-4,3.8-6c47.9-72.8,95.9-145.7,143.8-218.5c44.2-67.1,88.4-134.3,132.6-201.4c59.8-90.8,119.5-181.5,179.3-272.3&#10;&#9;&#9;&#9;c1.1-1.7,2.3-3.4,3.5-5.1c7.2-10.2,24.6-18.7,44.3-12.2c8.8,2.9,20.5,9.6,23.7,33.4c-1.4,66.6-1.2,410.5-1.2,410.5&#10;&#9;&#9;&#9;s204.7-0.2,324.6-0.2c4.6,0,9.2,0,13.8,0.1c25.8,0.3,43.3,24.7,32.1,44.3c-1.5,2.6-3.2,5.2-4.8,7.8&#10;&#9;&#9;&#9;c-36.7,55.8-73.4,111.5-110.1,167.3c-44.6,67.7-89.2,135.4-133.8,203.1c-57.9,87.9-115.8,175.8-173.7,263.7&#10;&#9;&#9;&#9;c-12,18.2-23.9,36.4-35.9,54.6c-1.3,2-2.6,4-4,5.9c-9.7,13.1-25.9,18.2-42.7,13.6c-10.6-3.6-25.4-10-25.9-32.9&#10;&#9;&#9;&#9;c0.5-85-0.5-411.5-0.5-411.5" class="st0"/>
	</g>
	<g>
		<path d="M370,1556.9c4.3,0,6.5,2,6.5,6.2v26.9c0,4.3-2.3,6.2-6.5,6.2H247.1c-29.2,0-37.7,8.8-37.7,38.5v5.7h159.1&#10;&#9;&#9;&#9;c4.3,0,6.2,2,6.2,6.2v22.4c0,4.3-2,6.2-6.2,6.2H209.4v73.6c0,4.3-2,6.2-6.2,6.2h-30.6c-4.3,0-6.5-2-6.5-6.2v-117.2&#10;&#9;&#9;&#9;c0-54.4,22.1-74.8,79.3-74.8H370z" class="st0"/>
		<path d="M498.5,1556.9c14.4,0,23.2,4.5,32.6,21.5l93.7,170.2c2,3.7,1.1,6.5-3.4,6.5h-36c-3.7,0-5.1-0.8-6.5-3.7&#10;&#9;&#9;&#9;l-20.1-36.5H425.8l-19.5,36.5c-1.4,2.8-3.1,3.7-6.5,3.7h-36.8c-4.8,0-5.7-2.8-3.7-6.5l92.9-170.2c9.3-17,17.8-21.5,29.7-21.5&#10;&#9;&#9;&#9;L498.5,1556.9L498.5,1556.9z M443.6,1682.1H541l-45-83c-0.9-1.4-1.7-2-3.1-2h-1.7c-1.4,0-2.3,0.6-3.1,2L443.6,1682.1z" class="st0"/>
		<path d="M832.7,1556.9c4.3,0,6.2,2,6.2,6.2v26.9c0,4.3-2,6.2-6.2,6.2H690.8c-10.8,0-15,5.9-15,15.9v9.6&#10;&#9;&#9;&#9;c0,10.5,4.8,15.9,14.7,15.9h106.2c32.6,0,49.5,17.6,49.5,48.7v22.7c0,27.5-15.9,46.2-50.1,46.2H639.3c-4.3,0-6.5-2-6.5-6.2V1722&#10;&#9;&#9;&#9;c0-4.3,2.3-6.2,6.5-6.2h148.7c10.8,0,15-5.9,15-15.9v-11.6c0-10.5-4.8-15.9-14.7-15.9H682c-32.6,0-49.5-17.6-49.5-48.7v-20.7&#10;&#9;&#9;&#9;c0-27.5,15.9-46.2,50.1-46.2H832.7z" class="st0"/>
		<path d="M1081,1556.9c4.3,0,6.5,2,6.5,6.2v27.8c0,4.3-2.3,6.5-6.5,6.5h-88.9v151.5c0,4.3-2,6.2-6.2,6.2H955&#10;&#9;&#9;&#9;c-4.3,0-6.2-2-6.2-6.2v-151.5h-88.9c-4.3,0-6.5-2.3-6.5-6.5v-27.8c0-4.3,2.3-6.2,6.5-6.2H1081z" class="st0"/>
		<path d="M1296.5,1556.9c4.3,0,6.2,2,6.2,6.2v26.9c0,4.3-2,6.2-6.2,6.2h-141.9c-10.8,0-15,5.9-15,15.9v9.6&#10;&#9;&#9;&#9;c0,10.5,4.8,15.9,14.7,15.9h106.2c32.6,0,49.6,17.6,49.6,48.7v22.7c0,27.5-15.9,46.2-50.1,46.2h-156.9c-4.3,0-6.5-2-6.5-6.2V1722&#10;&#9;&#9;&#9;c0-4.3,2.3-6.2,6.5-6.2h148.7c10.8,0,15-5.9,15-15.9v-11.6c0-10.5-4.8-15.9-14.7-15.9h-106.2c-32.6,0-49.6-17.6-49.6-48.7v-20.7&#10;&#9;&#9;&#9;c0-27.5,15.9-46.2,50.1-46.2H1296.5z" class="st0"/>
		<path d="M1366.4,1556.9c4.3,0,6.2,2,6.2,6.2v185.8c0,4.3-2,6.2-6.2,6.2h-30.6c-4.3,0-6.5-2-6.5-6.2v-185.8&#10;&#9;&#9;&#9;c0-4.3,2.3-6.2,6.5-6.2H1366.4z" class="st0"/>
		<path d="M1612.8,1556.9c4.3,0,6.5,2,6.5,6.2v27.8c0,4.3-2.3,6.5-6.5,6.5h-88.9v151.5c0,4.3-2,6.2-6.2,6.2h-30.9&#10;&#9;&#9;&#9;c-4.3,0-6.2-2-6.2-6.2v-151.5h-88.9c-4.3,0-6.5-2.3-6.5-6.5v-27.8c0-4.3,2.3-6.2,6.5-6.2H1612.8z" class="st0"/>
		<path d="M1827.4,1556.9c4.3,0,6.5,2,6.5,6.2v26.9c0,4.3-2.3,6.2-6.5,6.2h-123.7c-29.4,0-37.7,8.8-37.7,38.5v2.8h160&#10;&#9;&#9;&#9;c4.3,0,6.2,2,6.2,6.2v22.4c0,4.3-2,6.2-6.2,6.2h-160v4.8c0,29.7,8.2,38.5,37.7,38.5h123.7c4.3,0,6.5,2,6.5,6.2v26.9&#10;&#9;&#9;&#9;c0,4.3-2.3,6.2-6.5,6.2h-124.6c-57.2,0-79.3-20.4-79.3-74.8v-48.7c0-54.4,22.1-74.8,79.3-74.8L1827.4,1556.9L1827.4,1556.9z" class="st0"/>
	</g>
	<g>
		<path d="M197.7,1886.1v-34.8h13.8c1.6,0,3.1,0.2,4.4,0.7c1.3,0.5,2.4,1.1,3.2,2c1,0.9,1.8,1.9,2.4,3.1&#10;&#9;&#9;&#9;c0.5,1.2,0.8,2.6,0.8,4.1c0,2.1-0.4,3.8-1.2,5.3c-0.8,1.5-2.1,2.6-3.7,3.4s-3.7,1.2-6.2,1.2H201v15L197.7,1886.1L197.7,1886.1z&#10;&#9;&#9;&#9; M201,1868.4h9.8c2.8,0,4.8-0.6,6.2-1.9s2-3,2-5.2c0-2.3-0.7-4-2.1-5.3c-1.4-1.2-3.4-1.8-5.8-1.8h-10L201,1868.4L201,1868.4z" class="st0"/>
		<path d="M289.3,1886.7c-2.5,0-4.8-0.4-6.9-1.3c-2-0.9-3.8-2.1-5.3-3.8s-2.6-3.5-3.4-5.7c-0.8-2.2-1.2-4.6-1.2-7.2&#10;&#9;&#9;&#9;c0-2.6,0.4-5,1.2-7.2c0.8-2.2,1.9-4.1,3.4-5.7s3.2-2.9,5.3-3.8s4.4-1.3,6.9-1.3c2.5,0,4.8,0.4,6.8,1.3s3.8,2.1,5.3,3.8&#10;&#9;&#9;&#9;c1.5,1.6,2.6,3.5,3.4,5.7c0.8,2.2,1.2,4.6,1.2,7.2c0,2.6-0.4,5-1.2,7.2c-0.8,2.2-1.9,4.1-3.4,5.7c-1.5,1.6-3.2,2.9-5.3,3.8&#10;&#9;&#9;&#9;C294.1,1886.2,291.8,1886.7,289.3,1886.7z M289.3,1883.8c2.1,0,4-0.4,5.6-1.1s3-1.8,4.2-3.2c1.2-1.4,2-3,2.6-4.8&#10;&#9;&#9;&#9;c0.6-1.8,0.9-3.8,0.9-5.9c0-2.1-0.3-4.1-0.9-6c-0.6-1.8-1.5-3.4-2.6-4.8c-1.2-1.4-2.6-2.4-4.2-3.2c-1.6-0.8-3.5-1.2-5.6-1.2&#10;&#9;&#9;&#9;c-2.1,0-4,0.4-5.6,1.2c-1.7,0.8-3.1,1.8-4.2,3.2s-2,3-2.6,4.8s-0.9,3.8-0.9,6s0.3,4.1,0.9,5.9c0.6,1.8,1.5,3.4,2.6,4.8&#10;&#9;&#9;&#9;s2.6,2.4,4.2,3.2C285.3,1883.4,287.2,1883.8,289.3,1883.8z" class="st0"/>
		<path d="M363.9,1886.1l-9.6-34.8h3.4l6.2,23c0.2,0.7,0.4,1.5,0.6,2.3s0.4,1.7,0.5,2.5c0.1,0.8,0.3,1.5,0.4,2.1&#10;&#9;&#9;&#9;c0.1,0.6,0.2,1,0.2,1.2h0.1c0.1-0.2,0.1-0.6,0.3-1.2c0.1-0.6,0.3-1.3,0.4-2.1c0.2-0.8,0.3-1.6,0.5-2.5s0.4-1.6,0.6-2.4l6.4-22.9&#10;&#9;&#9;&#9;h3.5l6.3,23.1c0.2,0.7,0.4,1.5,0.6,2.3s0.4,1.7,0.5,2.4c0.1,0.8,0.3,1.5,0.4,2c0.1,0.6,0.2,0.9,0.3,1.1h0.1c0-0.2,0.1-0.6,0.2-1.1&#10;&#9;&#9;&#9;c0.1-0.5,0.2-1.1,0.4-1.9c0.1-0.7,0.3-1.5,0.5-2.4s0.4-1.7,0.6-2.6l6.3-23.2h3.4l-10,34.8h-3.2l-6.3-23.7&#10;&#9;&#9;&#9;c-0.2-0.7-0.4-1.5-0.6-2.3c-0.2-0.8-0.4-1.7-0.5-2.4c-0.2-0.8-0.3-1.5-0.4-2.1s-0.2-1-0.3-1.2h-0.1c-0.1,0.2-0.1,0.6-0.3,1.2&#10;&#9;&#9;&#9;s-0.3,1.3-0.4,2.1c-0.2,0.8-0.4,1.7-0.5,2.5s-0.4,1.6-0.6,2.3l-6.5,23.6L363.9,1886.1L363.9,1886.1z" class="st0"/>
		<path d="M448.1,1886.1v-34.8h24v2.9h-20.7v12.4h18.8v2.8h-18.8v13.7h21.2v3H448.1z" class="st0"/>
		<path d="M525.1,1886.1v-34.8h15.1c2.1,0,3.9,0.4,5.5,1.2s2.8,1.9,3.7,3.3s1.3,3.1,1.3,5c0,2.2-0.5,4-1.5,5.5&#10;&#9;&#9;&#9;c-1,1.5-2.7,2.6-5.1,3.2v0.1c1.3,0.3,2.4,0.8,3.2,1.5c0.8,0.7,1.4,1.6,1.8,2.7s0.6,2.5,0.7,4.2c0.1,1.4,0.1,2.7,0.3,3.6&#10;&#9;&#9;&#9;c0.1,1,0.2,1.7,0.3,2.3s0.3,1,0.4,1.3c0.2,0.3,0.3,0.5,0.5,0.6v0.2h-3.5c-0.2-0.2-0.4-0.5-0.6-1s-0.3-1.2-0.4-2.3&#10;&#9;&#9;&#9;s-0.2-2.6-0.3-4.7c-0.1-2.5-0.8-4.3-1.9-5.4c-1.1-1.2-3-1.8-5.4-1.8h-10.8v15.2L525.1,1886.1L525.1,1886.1z M528.4,1868.3h10.7&#10;&#9;&#9;&#9;c2.8,0,4.8-0.6,6.2-1.9c1.3-1.3,2-3,2-5.2c0-2.3-0.7-4-2-5.3c-1.3-1.2-3.3-1.8-6-1.8h-11L528.4,1868.3L528.4,1868.3z" class="st0"/>
		<path d="M670.4,1886.1v-31.8h-12v-2.9h27.2v2.9h-12v31.8H670.4z" class="st0"/>
		<path d="M750.5,1886.7c-2.5,0-4.8-0.4-6.9-1.3c-2-0.9-3.8-2.1-5.3-3.8c-1.5-1.6-2.6-3.5-3.4-5.7&#10;&#9;&#9;&#9;c-0.8-2.2-1.2-4.6-1.2-7.2c0-2.6,0.4-5,1.2-7.2c0.8-2.2,1.9-4.1,3.4-5.7c1.5-1.6,3.2-2.9,5.3-3.8c2-0.9,4.3-1.3,6.9-1.3&#10;&#9;&#9;&#9;c2.5,0,4.8,0.4,6.8,1.3c2,0.9,3.8,2.1,5.3,3.8c1.5,1.6,2.6,3.5,3.4,5.7s1.2,4.6,1.2,7.2c0,2.6-0.4,5-1.2,7.2s-1.9,4.1-3.4,5.7&#10;&#9;&#9;&#9;c-1.5,1.6-3.2,2.9-5.3,3.8C755.3,1886.2,753,1886.7,750.5,1886.7z M750.5,1883.8c2.1,0,4-0.4,5.6-1.1c1.7-0.8,3-1.8,4.2-3.2&#10;&#9;&#9;&#9;c1.2-1.4,2-3,2.7-4.8c0.6-1.8,0.9-3.8,0.9-5.9c0-2.1-0.3-4.1-0.9-6s-1.5-3.4-2.7-4.8c-1.2-1.4-2.6-2.4-4.2-3.2&#10;&#9;&#9;&#9;c-1.7-0.8-3.5-1.2-5.6-1.2c-2.1,0-4,0.4-5.6,1.2c-1.7,0.8-3.1,1.8-4.2,3.2s-2,3-2.7,4.8s-0.9,3.8-0.9,6s0.3,4.1,0.9,5.9&#10;&#9;&#9;&#9;c0.6,1.8,1.5,3.4,2.7,4.8c1.2,1.4,2.6,2.4,4.2,3.2C746.5,1883.4,748.4,1883.8,750.5,1883.8z" class="st0"/>
		<path d="M886.6,1886.1v-15l-12.7-19.8h3.7l7.3,11.5c0.3,0.5,0.6,1.1,1,1.6c0.3,0.6,0.6,1.1,0.9,1.6&#10;&#9;&#9;&#9;c0.3,0.5,0.6,1,0.8,1.5s0.5,0.9,0.8,1.3h0.1c0.1-0.2,0.3-0.5,0.5-0.9s0.5-0.9,0.9-1.5c0.3-0.6,0.7-1.2,1-1.8&#10;&#9;&#9;&#9;c0.4-0.6,0.7-1.2,1.1-1.8l7.3-11.4h3.5l-12.8,19.9v14.8L886.6,1886.1L886.6,1886.1z" class="st0"/>
		<path d="M966.4,1886.7c-2.5,0-4.8-0.4-6.9-1.3c-2-0.9-3.8-2.1-5.3-3.8c-1.5-1.6-2.6-3.5-3.4-5.7&#10;&#9;&#9;&#9;c-0.8-2.2-1.2-4.6-1.2-7.2c0-2.6,0.4-5,1.2-7.2c0.8-2.2,1.9-4.1,3.4-5.7c1.5-1.6,3.2-2.9,5.3-3.8c2-0.9,4.3-1.3,6.9-1.3&#10;&#9;&#9;&#9;c2.5,0,4.8,0.4,6.8,1.3c2,0.9,3.8,2.1,5.3,3.8c1.5,1.6,2.6,3.5,3.4,5.7s1.2,4.6,1.2,7.2c0,2.6-0.4,5-1.2,7.2s-1.9,4.1-3.4,5.7&#10;&#9;&#9;&#9;c-1.5,1.6-3.2,2.9-5.3,3.8C971.2,1886.2,968.9,1886.7,966.4,1886.7z M966.4,1883.8c2.1,0,4-0.4,5.6-1.1c1.7-0.8,3-1.8,4.2-3.2&#10;&#9;&#9;&#9;c1.2-1.4,2-3,2.7-4.8c0.6-1.8,0.9-3.8,0.9-5.9c0-2.1-0.3-4.1-0.9-6s-1.5-3.4-2.7-4.8c-1.2-1.4-2.6-2.4-4.2-3.2&#10;&#9;&#9;&#9;c-1.7-0.8-3.5-1.2-5.6-1.2c-2.1,0-4,0.4-5.6,1.2c-1.7,0.8-3.1,1.8-4.2,3.2s-2,3-2.7,4.8s-0.9,3.8-0.9,6s0.3,4.1,0.9,5.9&#10;&#9;&#9;&#9;c0.6,1.8,1.5,3.4,2.7,4.8c1.2,1.4,2.6,2.4,4.2,3.2C962.4,1883.4,964.3,1883.8,966.4,1883.8z" class="st0"/>
		<path d="M1048.3,1886.6c-2.5,0-4.7-0.4-6.7-1.2c-2-0.8-3.5-2.1-4.7-3.8c-1.2-1.8-1.7-4-1.7-6.9v-23.4h3.3v23.1&#10;&#9;&#9;&#9;c0,2.2,0.4,4,1.2,5.4s2,2.4,3.5,3c1.5,0.6,3.2,0.9,5.2,0.9c1.9,0,3.6-0.3,5.1-0.9s2.6-1.6,3.4-3c0.8-1.4,1.2-3.2,1.2-5.4v-23.1&#10;&#9;&#9;&#9;h3.3v23.4c0,2.8-0.6,5.1-1.8,6.9s-2.8,3-4.7,3.8C1052.9,1886.2,1050.7,1886.6,1048.3,1886.6z" class="st0"/>
		<path d="M1114.8,1886.1v-34.8h15.1c2.1,0,3.9,0.4,5.5,1.2s2.8,1.9,3.7,3.3s1.3,3.1,1.3,5c0,2.2-0.5,4-1.5,5.5&#10;&#9;&#9;&#9;s-2.7,2.6-5.1,3.2v0.1c1.3,0.3,2.4,0.8,3.2,1.5c0.8,0.7,1.4,1.6,1.8,2.7s0.6,2.5,0.7,4.2c0.1,1.4,0.1,2.7,0.3,3.6s0.2,1.7,0.3,2.3&#10;&#9;&#9;&#9;s0.3,1,0.4,1.3c0.2,0.3,0.3,0.5,0.5,0.6v0.2h-3.5c-0.2-0.2-0.4-0.5-0.6-1s-0.3-1.2-0.4-2.3s-0.2-2.6-0.3-4.7&#10;&#9;&#9;&#9;c-0.1-2.5-0.8-4.3-1.9-5.4c-1.1-1.2-2.9-1.8-5.4-1.8h-10.8v15.2L1114.8,1886.1L1114.8,1886.1z M1118.1,1868.3h10.7&#10;&#9;&#9;&#9;c2.8,0,4.8-0.6,6.2-1.9s2-3,2-5.2c0-2.3-0.7-4-2-5.3c-1.3-1.2-3.3-1.8-5.9-1.8h-11L1118.1,1868.3L1118.1,1868.3z" class="st0"/>
		<path d="M1250.5,1886.1v-34.8h14.2c1.7,0,3.3,0.2,4.6,0.7c1.3,0.4,2.5,1.1,3.4,2c0.8,0.7,1.4,1.6,1.9,2.7&#10;&#9;&#9;&#9;c0.5,1,0.7,2.3,0.7,3.6c0,1.9-0.5,3.5-1.6,4.8s-2.6,2.2-4.4,2.7v0.1c2.3,0.4,4.1,1.4,5.4,2.9c1.4,1.5,2.1,3.3,2.1,5.6&#10;&#9;&#9;&#9;c0,1.4-0.3,2.7-0.8,3.9s-1.2,2.2-2.1,3c-1,1-2.2,1.7-3.6,2.2c-1.4,0.5-3,0.8-4.8,0.8L1250.5,1886.1L1250.5,1886.1z M1253.8,1866.6&#10;&#9;&#9;&#9;l11.1,0c2.2,0,3.9-0.6,5.2-1.7c1.3-1.1,1.9-2.6,1.9-4.5c0-1.4-0.3-2.5-0.9-3.4c-0.6-0.9-1.5-1.6-2.6-2.1s-2.4-0.7-3.9-0.7h-10.9&#10;&#9;&#9;&#9;L1253.8,1866.6L1253.8,1866.6z M1253.8,1883.2h11.5c1.3,0,2.5-0.2,3.5-0.5s1.9-0.8,2.6-1.4c0.6-0.6,1.1-1.3,1.5-2.1&#10;&#9;&#9;&#9;s0.6-1.8,0.6-2.8c0-1.5-0.3-2.8-1-3.8c-0.7-1-1.6-1.8-2.8-2.4s-2.6-0.8-4.1-0.8h-11.7L1253.8,1883.2L1253.8,1883.2z" class="st0"/>
		<path d="M1341.4,1886.6c-2.5,0-4.7-0.4-6.7-1.2c-2-0.8-3.5-2.1-4.7-3.8c-1.2-1.8-1.7-4-1.7-6.9v-23.4h3.3v23.1&#10;&#9;&#9;&#9;c0,2.2,0.4,4,1.2,5.4s2,2.4,3.5,3c1.5,0.6,3.2,0.9,5.2,0.9c1.9,0,3.6-0.3,5.1-0.9s2.6-1.6,3.4-3c0.8-1.4,1.2-3.2,1.2-5.4v-23.1&#10;&#9;&#9;&#9;h3.3v23.4c0,2.8-0.6,5.1-1.8,6.9s-2.8,3-4.7,3.8C1346,1886.2,1343.8,1886.6,1341.4,1886.6z" class="st0"/>
		<path d="M1420.5,1886.7c-3.2,0-5.8-0.5-7.9-1.6s-3.7-2.4-4.8-4.2c-1.1-1.8-1.7-3.8-1.8-5.9h3.2&#10;&#9;&#9;&#9;c0.2,1.9,0.7,3.5,1.6,4.8c0.9,1.4,2.1,2.4,3.8,3.2c1.6,0.7,3.6,1.1,6,1.1c1.9,0,3.5-0.3,4.9-0.8s2.4-1.4,3.2-2.4s1.1-2.4,1.1-3.9&#10;&#9;&#9;&#9;c0-1.7-0.4-3-1.3-4c-0.9-1-2.1-1.7-3.7-2.3c-1.6-0.6-3.6-1.1-5.9-1.5c-1.6-0.3-3.1-0.7-4.5-1.2c-1.4-0.5-2.6-1-3.6-1.7&#10;&#9;&#9;&#9;s-1.8-1.6-2.4-2.6s-0.9-2.4-0.9-3.9c0-1.9,0.5-3.4,1.5-4.8c1-1.3,2.3-2.3,4.1-3.1s3.8-1.1,6.1-1.1c2,0,3.8,0.3,5.3,0.7&#10;&#9;&#9;&#9;s2.8,1.2,3.8,2.1s1.9,2,2.5,3.2c0.6,1.2,1,2.6,1.2,4.1h-3.2c-0.3-2.4-1.3-4.3-3-5.6s-3.8-1.9-6.6-1.9c-2.6,0-4.7,0.5-6.3,1.6&#10;&#9;&#9;&#9;s-2.3,2.6-2.3,4.5c0,1.4,0.4,2.6,1.2,3.4c0.8,0.8,1.9,1.5,3.4,2c1.4,0.5,3.2,0.9,5.1,1.3c1.8,0.3,3.5,0.7,5.1,1.2s2.9,1.1,4.1,1.8&#10;&#9;&#9;&#9;s2.1,1.7,2.7,2.9c0.7,1.2,1,2.7,1,4.5c0,2.1-0.5,3.8-1.6,5.3c-1.1,1.5-2.5,2.6-4.4,3.4C1425.2,1886.3,1423,1886.7,1420.5,1886.7z" class="st0"/>
		<path d="M1485.5,1886.1v-34.8h3.3v34.8H1485.5z" class="st0"/>
		<path d="M1542.8,1886.1v-34.8h3.4l16.8,24.4c0.4,0.6,0.8,1.1,1.1,1.8s0.7,1.3,1.1,1.8c0.3,0.6,0.6,1.1,0.9,1.6&#10;&#9;&#9;&#9;c0.3,0.4,0.4,0.7,0.5,0.9h0.1c0-0.2,0-0.5,0-1s0-1.1-0.1-1.7c0-0.7,0-1.3-0.1-2.1c0-0.7,0-1.4,0-2v-23.7h3.1v34.8h-3.4l-16.8-24.5&#10;&#9;&#9;&#9;c-0.4-0.6-0.7-1.1-1.1-1.8s-0.8-1.2-1.1-1.8c-0.4-0.6-0.7-1.1-0.9-1.5s-0.4-0.7-0.5-0.8h-0.1c0,0.2,0,0.5,0,1c0,0.5,0,1,0.1,1.7&#10;&#9;&#9;&#9;c0,0.7,0,1.3,0.1,2c0,0.7,0,1.3,0,2v23.8L1542.8,1886.1L1542.8,1886.1z" class="st0"/>
		<path d="M1623.7,1886.1v-34.8h24v2.9H1627v12.4h18.8v2.8H1627v13.7h21.2v3H1623.7z" class="st0"/>
		<path d="M1712.5,1886.7c-3.2,0-5.8-0.5-7.9-1.6s-3.7-2.4-4.8-4.2c-1.1-1.8-1.7-3.8-1.8-5.9h3.2&#10;&#9;&#9;&#9;c0.2,1.9,0.7,3.5,1.6,4.8c0.9,1.4,2.1,2.4,3.8,3.2c1.6,0.7,3.6,1.1,6,1.1c1.9,0,3.5-0.3,4.9-0.8s2.4-1.4,3.2-2.4s1.1-2.4,1.1-3.9&#10;&#9;&#9;&#9;c0-1.7-0.4-3-1.3-4c-0.9-1-2.1-1.7-3.7-2.3c-1.6-0.6-3.6-1.1-5.9-1.5c-1.6-0.3-3.1-0.7-4.5-1.2c-1.4-0.5-2.6-1-3.6-1.7&#10;&#9;&#9;&#9;s-1.8-1.6-2.4-2.6s-0.9-2.4-0.9-3.9c0-1.9,0.5-3.4,1.5-4.8c1-1.3,2.3-2.3,4.1-3.1s3.8-1.1,6.1-1.1c2,0,3.8,0.3,5.3,0.7&#10;&#9;&#9;&#9;s2.8,1.2,3.8,2.1s1.9,2,2.5,3.2c0.6,1.2,1,2.6,1.2,4.1h-3.2c-0.3-2.4-1.3-4.3-3-5.6s-3.8-1.9-6.6-1.9c-2.6,0-4.7,0.5-6.3,1.6&#10;&#9;&#9;&#9;s-2.3,2.6-2.3,4.5c0,1.4,0.4,2.6,1.2,3.4c0.8,0.8,1.9,1.5,3.4,2c1.4,0.5,3.2,0.9,5.1,1.3c1.8,0.3,3.5,0.7,5.1,1.2s2.9,1.1,4.1,1.8&#10;&#9;&#9;&#9;s2.1,1.7,2.7,2.9c0.7,1.2,1,2.7,1,4.5c0,2.1-0.5,3.8-1.6,5.3c-1.1,1.5-2.5,2.6-4.4,3.4C1717.2,1886.3,1715,1886.7,1712.5,1886.7z" class="st0"/>
		<path d="M1789.7,1886.7c-3.2,0-5.8-0.5-7.9-1.6s-3.7-2.4-4.8-4.2c-1.1-1.8-1.7-3.8-1.8-5.9h3.2&#10;&#9;&#9;&#9;c0.2,1.9,0.7,3.5,1.6,4.8c0.9,1.4,2.1,2.4,3.8,3.2c1.6,0.7,3.6,1.1,6,1.1c1.9,0,3.5-0.3,4.9-0.8s2.4-1.4,3.2-2.4s1.1-2.4,1.1-3.9&#10;&#9;&#9;&#9;c0-1.7-0.4-3-1.3-4c-0.9-1-2.1-1.7-3.7-2.3c-1.6-0.6-3.6-1.1-5.9-1.5c-1.6-0.3-3.1-0.7-4.5-1.2c-1.4-0.5-2.6-1-3.6-1.7&#10;&#9;&#9;&#9;s-1.8-1.6-2.4-2.6s-0.9-2.4-0.9-3.9c0-1.9,0.5-3.4,1.5-4.8c1-1.3,2.3-2.3,4.1-3.1s3.8-1.1,6.1-1.1c2,0,3.8,0.3,5.3,0.7&#10;&#9;&#9;&#9;s2.8,1.2,3.8,2.1s1.9,2,2.5,3.2c0.6,1.2,1,2.6,1.2,4.1h-3.2c-0.3-2.4-1.3-4.3-3-5.6s-3.8-1.9-6.6-1.9c-2.6,0-4.7,0.5-6.3,1.6&#10;&#9;&#9;&#9;s-2.3,2.6-2.3,4.5c0,1.4,0.4,2.6,1.2,3.4c0.8,0.8,1.9,1.5,3.4,2c1.4,0.5,3.2,0.9,5.1,1.3c1.8,0.3,3.5,0.7,5.1,1.2s2.9,1.1,4.1,1.8&#10;&#9;&#9;&#9;s2.1,1.7,2.7,2.9c0.7,1.2,1,2.7,1,4.5c0,2.1-0.5,3.8-1.6,5.3c-1.1,1.5-2.5,2.6-4.4,3.4C1794.5,1886.3,1792.3,1886.7,1789.7,1886.7&#10;&#9;&#9;&#9;z" class="st0"/>
	</g>
</g>
</svg>